<svg width="1116" height="40" viewBox="0 0 1116 40" fill="none" xmlns="http://www.w3.org/2000/svg">
<path d="M20.154 12L4.15399 20V28M20.154 20L12.154 24" stroke="white" stroke-opacity="0.6" stroke-width="2" stroke-linejoin="round"/>
<path d="M20.154 28L4.15399 20V28L20.154 36V28Z" stroke="white" stroke-opacity="0.6" stroke-width="2" stroke-linejoin="round"/>
<path d="M36.154 20V12L20.154 4V12L28.154 16" stroke="white" stroke-opacity="0.6" stroke-width="2" stroke-linejoin="round"/>
<path d="M20.154 20L36.154 12V20L20.154 28V20Z" stroke="white" stroke-opacity="0.6" stroke-width="2" stroke-linejoin="round"/>
<path d="M48.154 27.126V8.64602H62.014V11.754H52.018V16.346H59.886V19.314H52.018V24.018H62.406V27.126H48.154Z" fill="white" fill-opacity="0.6"/>
<path d="M63.4807 33.006V13.126H66.9247L67.1767 17.578L66.7007 17.074C66.8687 16.2527 67.1767 15.5247 67.6247 14.89C68.0914 14.2554 68.6794 13.7607 69.3887 13.406C70.0981 13.0327 70.8914 12.846 71.7687 12.846C72.9074 12.846 73.9247 13.1354 74.8207 13.714C75.7167 14.2927 76.4167 15.1234 76.9207 16.206C77.4434 17.27 77.7047 18.5674 77.7047 20.098C77.7047 21.6287 77.4434 22.9447 76.9207 24.046C76.3981 25.1287 75.6794 25.9594 74.7647 26.538C73.8687 27.1167 72.8421 27.406 71.6847 27.406C70.4527 27.406 69.4261 27.0607 68.6047 26.37C67.8021 25.6794 67.2514 24.8114 66.9527 23.766L67.3167 23.178V33.006H63.4807ZM70.5647 24.466C71.5914 24.466 72.3941 24.102 72.9727 23.374C73.5701 22.6274 73.8687 21.5447 73.8687 20.126C73.8687 18.7074 73.5794 17.634 73.0007 16.906C72.4407 16.1594 71.6474 15.786 70.6207 15.786C69.9674 15.786 69.3887 15.9634 68.8847 16.318C68.3994 16.654 68.0167 17.1487 67.7367 17.802C67.4567 18.4367 67.3167 19.2114 67.3167 20.126C67.3167 21.0034 67.4474 21.778 67.7087 22.45C67.9701 23.1034 68.3434 23.6074 68.8287 23.962C69.3327 24.298 69.9114 24.466 70.5647 24.466Z" fill="white" fill-opacity="0.6"/>
<path d="M80.9674 11.11C80.1648 11.11 79.5674 10.942 79.1754 10.606C78.7834 10.2514 78.5874 9.73802 78.5874 9.06602C78.5874 8.37535 78.7834 7.86202 79.1754 7.52602C79.5674 7.17135 80.1648 6.99402 80.9674 6.99402C81.7701 6.99402 82.3674 7.17135 82.7594 7.52602C83.1514 7.86202 83.3474 8.37535 83.3474 9.06602C83.3474 9.73802 83.1514 10.2514 82.7594 10.606C82.3674 10.942 81.7701 11.11 80.9674 11.11ZM82.8714 13.126V27.126H79.0354V13.126H82.8714Z" fill="white" fill-opacity="0.6"/>
<path d="M91.2938 12.846C92.5444 12.846 93.5991 13.0327 94.4578 13.406C95.3351 13.7607 96.0351 14.2554 96.5578 14.89C97.0991 15.506 97.4818 16.1967 97.7058 16.962L94.1218 18.25C93.9351 17.41 93.6178 16.7754 93.1698 16.346C92.7218 15.9167 92.1151 15.702 91.3498 15.702C90.6404 15.702 90.0338 15.87 89.5298 16.206C89.0258 16.5234 88.6431 17.018 88.3818 17.69C88.1204 18.3434 87.9898 19.1647 87.9898 20.154C87.9898 21.1434 88.1204 21.9647 88.3818 22.618C88.6618 23.2714 89.0538 23.7567 89.5578 24.074C90.0804 24.3914 90.6871 24.55 91.3778 24.55C91.9378 24.55 92.4138 24.4567 92.8058 24.27C93.1978 24.0647 93.5151 23.7754 93.7578 23.402C94.0191 23.0287 94.1964 22.5807 94.2898 22.058L97.7618 23.178C97.5564 24.018 97.1738 24.7554 96.6138 25.39C96.0538 26.0247 95.3351 26.5194 94.4578 26.874C93.5804 27.2287 92.5631 27.406 91.4058 27.406C89.9684 27.406 88.6991 27.1167 87.5978 26.538C86.4964 25.9594 85.6471 25.1287 85.0498 24.046C84.4524 22.9634 84.1538 21.6567 84.1538 20.126C84.1538 18.5954 84.4524 17.2887 85.0498 16.206C85.6471 15.1234 86.4871 14.2927 87.5698 13.714C88.6524 13.1354 89.8938 12.846 91.2938 12.846Z" fill="white" fill-opacity="0.6"/>
<path d="M106.274 8.64602C109.168 8.64602 111.408 9.44869 112.994 11.054C114.581 12.6407 115.374 14.918 115.374 17.886C115.374 20.8354 114.581 23.1127 112.994 24.718C111.408 26.3234 109.168 27.126 106.274 27.126H99.1345V8.64602H106.274ZM106.078 24.046C107.833 24.046 109.149 23.5234 110.026 22.478C110.922 21.414 111.37 19.8834 111.37 17.886C111.37 15.8887 110.922 14.3674 110.026 13.322C109.149 12.258 107.833 11.726 106.078 11.726H102.998V24.046H106.078Z" fill="white" fill-opacity="0.6"/>
<path d="M123.363 27.406C121.889 27.406 120.601 27.1167 119.499 26.538C118.417 25.9594 117.577 25.1287 116.979 24.046C116.382 22.9634 116.083 21.6567 116.083 20.126C116.083 18.5954 116.382 17.2887 116.979 16.206C117.577 15.1234 118.407 14.2927 119.471 13.714C120.554 13.1354 121.786 12.846 123.167 12.846C124.586 12.846 125.79 13.1354 126.779 13.714C127.769 14.274 128.525 15.0487 129.047 16.038C129.57 17.0087 129.831 18.1194 129.831 19.37C129.831 19.7434 129.822 20.098 129.803 20.434C129.785 20.77 129.757 21.0687 129.719 21.33H118.547V18.67H128.039L126.191 19.342C126.191 18.166 125.921 17.2607 125.379 16.626C124.857 15.9914 124.11 15.674 123.139 15.674C122.43 15.674 121.814 15.842 121.291 16.178C120.787 16.514 120.405 17.018 120.143 17.69C119.882 18.3434 119.751 19.174 119.751 20.182C119.751 21.1714 119.891 21.9927 120.171 22.646C120.47 23.2807 120.881 23.7567 121.403 24.074C121.945 24.3914 122.589 24.55 123.335 24.55C124.157 24.55 124.819 24.3914 125.323 24.074C125.827 23.7567 126.219 23.318 126.499 22.758L129.551 23.934C129.253 24.662 128.795 25.2874 128.179 25.81C127.582 26.3327 126.863 26.734 126.023 27.014C125.202 27.2754 124.315 27.406 123.363 27.406Z" fill="white" fill-opacity="0.6"/>
<path d="M139.829 13.126H143.805L138.485 27.126H134.061L128.741 13.126H132.857L136.301 24.186L139.829 13.126Z" fill="white" fill-opacity="0.6"/>
<rect x="247.205" y="9.79993" width="6.8" height="6.8" fill="white" fill-opacity="0.6"/>
<rect x="240.405" y="16.6" width="6.8" height="6.8" fill="white" fill-opacity="0.6"/>
<rect x="240.405" y="16.6" width="6.8" height="6.8" fill="white" fill-opacity="0.6"/>
<rect x="247.205" y="23.4" width="6.8" height="6.8" fill="white" fill-opacity="0.6"/>
<rect x="240.405" y="30.2001" width="6.8" height="6.8" fill="white" fill-opacity="0.6"/>
<rect x="233.605" y="30.2001" width="6.8" height="6.8" fill="white" fill-opacity="0.6"/>
<rect x="240.405" y="3" width="6.8" height="6.8" fill="white" fill-opacity="0.6"/>
<path d="M233.605 3H240.405V9.8H233.605V3Z" fill="white" fill-opacity="0.6"/>
<path d="M275.261 28.896H275.101C274.738 29.8773 274.141 30.6454 273.309 31.2C272.498 31.7547 271.538 32.032 270.429 32.032C268.317 32.032 266.685 31.2747 265.533 29.76C264.381 28.224 263.805 26.08 263.805 23.328C263.805 20.576 264.381 18.4427 265.533 16.928C266.685 15.392 268.317 14.624 270.429 14.624C271.538 14.624 272.498 14.9014 273.309 15.456C274.141 15.9894 274.738 16.7573 275.101 17.76H275.261V7.96802H278.749V31.648H275.261V28.896ZM271.485 29.024C272.551 29.024 273.447 28.768 274.173 28.256C274.898 27.7227 275.261 27.0294 275.261 26.176V20.48C275.261 19.6267 274.898 18.944 274.173 18.432C273.447 17.8987 272.551 17.632 271.485 17.632C270.269 17.632 269.298 18.0267 268.573 18.816C267.847 19.584 267.485 20.608 267.485 21.888V24.768C267.485 26.048 267.847 27.0827 268.573 27.872C269.298 28.64 270.269 29.024 271.485 29.024Z" fill="white" fill-opacity="0.6"/>
<path d="M293.926 31.648C293.009 31.648 292.305 31.392 291.814 30.88C291.324 30.3467 291.025 29.6747 290.918 28.864H290.758C290.438 29.9094 289.852 30.6987 288.998 31.232C288.145 31.7654 287.11 32.032 285.894 32.032C284.166 32.032 282.833 31.584 281.894 30.688C280.977 29.792 280.518 28.5867 280.518 27.072C280.518 25.408 281.116 24.16 282.31 23.328C283.526 22.496 285.297 22.08 287.622 22.08H290.63V20.672C290.63 19.648 290.353 18.8587 289.798 18.304C289.244 17.7494 288.38 17.472 287.206 17.472C286.225 17.472 285.425 17.6854 284.806 18.112C284.188 18.5387 283.665 19.0827 283.238 19.744L281.158 17.856C281.713 16.9174 282.492 16.1494 283.494 15.552C284.497 14.9334 285.809 14.624 287.43 14.624C289.585 14.624 291.238 15.1254 292.39 16.128C293.542 17.1307 294.118 18.5707 294.118 20.448V28.8H295.878V31.648H293.926ZM286.886 29.376C287.974 29.376 288.87 29.1414 289.574 28.672C290.278 28.1814 290.63 27.5307 290.63 26.72V24.32H287.686C285.276 24.32 284.07 25.0667 284.07 26.56V27.136C284.07 27.8827 284.316 28.448 284.806 28.832C285.318 29.1947 286.012 29.376 286.886 29.376Z" fill="white" fill-opacity="0.6"/>
<path d="M301.811 31.648C300.595 31.648 299.678 31.3387 299.059 30.72C298.44 30.08 298.131 29.184 298.131 28.032V17.856H295.539V15.008H296.947C297.523 15.008 297.918 14.88 298.131 14.624C298.366 14.368 298.483 13.952 298.483 13.376V10.464H301.619V15.008H305.107V17.856H301.619V28.8H304.851V31.648H301.811Z" fill="white" fill-opacity="0.6"/>
<path d="M319.083 31.648C318.165 31.648 317.461 31.392 316.971 30.88C316.48 30.3467 316.181 29.6747 316.075 28.864H315.915C315.595 29.9094 315.008 30.6987 314.155 31.232C313.301 31.7654 312.267 32.032 311.051 32.032C309.323 32.032 307.989 31.584 307.051 30.688C306.133 29.792 305.675 28.5867 305.675 27.072C305.675 25.408 306.272 24.16 307.467 23.328C308.683 22.496 310.453 22.08 312.779 22.08H315.787V20.672C315.787 19.648 315.509 18.8587 314.955 18.304C314.4 17.7494 313.536 17.472 312.363 17.472C311.381 17.472 310.581 17.6854 309.963 18.112C309.344 18.5387 308.821 19.0827 308.395 19.744L306.315 17.856C306.869 16.9174 307.648 16.1494 308.651 15.552C309.653 14.9334 310.965 14.624 312.587 14.624C314.741 14.624 316.395 15.1254 317.547 16.128C318.699 17.1307 319.275 18.5707 319.275 20.448V28.8H321.035V31.648H319.083ZM312.043 29.376C313.131 29.376 314.027 29.1414 314.731 28.672C315.435 28.1814 315.787 27.5307 315.787 26.72V24.32H312.843C310.432 24.32 309.227 25.0667 309.227 26.56V27.136C309.227 27.8827 309.472 28.448 309.963 28.832C310.475 29.1947 311.168 29.376 312.043 29.376Z" fill="white" fill-opacity="0.6"/>
<path d="M322.709 9.31202H332.597C334.453 9.31202 335.904 9.83468 336.949 10.88C338.016 11.9254 338.549 13.3227 338.549 15.072C338.549 15.904 338.432 16.6187 338.197 17.216C337.962 17.792 337.664 18.272 337.301 18.656C336.938 19.0187 336.522 19.296 336.053 19.488C335.584 19.6587 335.125 19.7654 334.677 19.808V20C335.125 20.0214 335.616 20.128 336.149 20.32C336.704 20.512 337.216 20.8213 337.685 21.248C338.154 21.6533 338.549 22.1867 338.869 22.848C339.189 23.488 339.349 24.2774 339.349 25.216C339.349 26.112 339.2 26.9547 338.901 27.744C338.624 28.5334 338.229 29.216 337.717 29.792C337.205 30.368 336.597 30.8267 335.893 31.168C335.189 31.488 334.421 31.648 333.589 31.648H322.709V9.31202ZM326.325 28.544H332.533C333.472 28.544 334.208 28.2987 334.741 27.808C335.274 27.3174 335.541 26.6134 335.541 25.696V24.608C335.541 23.6907 335.274 22.9867 334.741 22.496C334.208 22.0054 333.472 21.76 332.533 21.76H326.325V28.544ZM326.325 18.752H331.925C332.821 18.752 333.514 18.528 334.005 18.08C334.496 17.6107 334.741 16.9494 334.741 16.096V15.072C334.741 14.2187 334.496 13.568 334.005 13.12C333.514 12.6507 332.821 12.416 331.925 12.416H326.325V18.752Z" fill="white" fill-opacity="0.6"/>
<path d="M341.547 15.008H345.035V31.648H341.547V15.008Z" fill="white" fill-opacity="0.6"/>
<path d="M352.624 31.648C351.408 31.648 350.49 31.3387 349.872 30.72C349.253 30.08 348.944 29.184 348.944 28.032V17.856H346.352V15.008H347.76C348.336 15.008 348.73 14.88 348.944 14.624C349.178 14.368 349.296 13.952 349.296 13.376V10.464H352.432V15.008H355.92V17.856H352.432V28.8H355.664V31.648H352.624Z" fill="white" fill-opacity="0.6"/>
<path d="M364.106 32.032C362.911 32.032 361.845 31.8293 360.906 31.424C359.967 31.0187 359.167 30.4427 358.506 29.696C357.845 28.928 357.333 28.0107 356.97 26.944C356.629 25.856 356.458 24.6507 356.458 23.328C356.458 22.0054 356.629 20.8107 356.97 19.744C357.333 18.656 357.845 17.7387 358.506 16.992C359.167 16.224 359.967 15.6374 360.906 15.232C361.845 14.8267 362.911 14.624 364.106 14.624C365.322 14.624 366.389 14.8374 367.306 15.264C368.245 15.6907 369.023 16.288 369.642 17.056C370.261 17.8027 370.719 18.6774 371.018 19.68C371.338 20.6827 371.498 21.76 371.498 22.912V24.224H360.074V24.768C360.074 26.048 360.447 27.104 361.194 27.936C361.962 28.7467 363.05 29.152 364.458 29.152C365.482 29.152 366.346 28.928 367.05 28.48C367.754 28.032 368.351 27.424 368.842 26.656L370.89 28.672C370.271 29.696 369.375 30.5174 368.202 31.136C367.029 31.7334 365.663 32.032 364.106 32.032ZM364.106 17.344C363.509 17.344 362.954 17.4507 362.442 17.664C361.951 17.8774 361.525 18.176 361.162 18.56C360.821 18.944 360.554 19.4027 360.362 19.936C360.17 20.4694 360.074 21.056 360.074 21.696V21.92H367.818V21.6C367.818 20.32 367.487 19.296 366.826 18.528C366.165 17.7387 365.258 17.344 364.106 17.344Z" fill="white" fill-opacity="0.6"/>
<path d="M378.639 32.032C377.061 32.032 375.738 31.7547 374.671 31.2C373.605 30.6454 372.677 29.8773 371.887 28.896L374.127 26.848C374.746 27.5947 375.429 28.1814 376.175 28.608C376.943 29.0133 377.829 29.216 378.831 29.216C379.855 29.216 380.613 29.024 381.103 28.64C381.615 28.2347 381.871 27.68 381.871 26.976C381.871 26.4427 381.69 25.9947 381.327 25.632C380.986 25.248 380.378 25.0027 379.503 24.896L377.967 24.704C376.261 24.4907 374.917 24 373.935 23.232C372.975 22.4427 372.495 21.28 372.495 19.744C372.495 18.9334 372.645 18.2187 372.943 17.6C373.242 16.96 373.658 16.4267 374.191 16C374.746 15.552 375.397 15.2107 376.143 14.976C376.911 14.7414 377.754 14.624 378.671 14.624C380.165 14.624 381.381 14.8587 382.319 15.328C383.279 15.7973 384.133 16.448 384.879 17.28L382.735 19.328C382.309 18.816 381.743 18.3787 381.039 18.016C380.357 17.632 379.567 17.44 378.671 17.44C377.711 17.44 376.997 17.632 376.527 18.016C376.079 18.4 375.855 18.9014 375.855 19.52C375.855 20.16 376.058 20.64 376.463 20.96C376.869 21.28 377.519 21.5147 378.415 21.664L379.951 21.856C381.786 22.1334 383.119 22.6774 383.951 23.488C384.805 24.2774 385.231 25.344 385.231 26.688C385.231 27.4987 385.071 28.2347 384.751 28.896C384.453 29.536 384.015 30.0907 383.439 30.56C382.863 31.0294 382.17 31.392 381.359 31.648C380.549 31.904 379.642 32.032 378.639 32.032Z" fill="white" fill-opacity="0.6"/>
<path d="M389.128 32.032C388.339 32.032 387.752 31.8293 387.368 31.424C386.984 30.9974 386.792 30.4747 386.792 29.856V29.376C386.792 28.7574 386.984 28.2453 387.368 27.84C387.752 27.4134 388.339 27.2 389.128 27.2C389.918 27.2 390.504 27.4134 390.888 27.84C391.272 28.2453 391.464 28.7574 391.464 29.376V29.856C391.464 30.4747 391.272 30.9974 390.888 31.424C390.504 31.8293 389.918 32.032 389.128 32.032Z" fill="white" fill-opacity="0.6"/>
<g clip-path="url(#clip0_15_997)">
<path d="M511.464 0H494.031C493.14 0 492.693 1.07714 493.323 1.70711L509.757 18.1409C510.387 18.7708 511.464 18.3247 511.464 17.4338V0Z" fill="white" fill-opacity="0.6"/>
<path d="M501.928 10.228H476.984C475.203 10.228 474.31 12.3823 475.57 13.6422L498.514 36.5858C499.774 37.8457 501.928 36.9534 501.928 35.1716V10.228Z" fill="white" fill-opacity="0.6"/>
<path fill-rule="evenodd" clip-rule="evenodd" d="M501.928 23.3468V10.228H488.809C488.227 13.6119 489.139 17.2875 492.004 20.152C494.869 23.0165 498.544 23.9292 501.928 23.3468Z" fill="white" fill-opacity="0.6"/>
</g>
<path d="M519.464 24.346C519.464 28.309 522.651 31.0054 527.676 31.0054C532.661 31.0054 536.133 28.4724 536.133 24.3869C536.133 21.2818 534.417 19.7293 531.026 18.9531L527.39 18.0951C525.674 17.6866 524.775 16.9512 524.775 15.8072C524.775 14.2956 525.919 13.3967 527.881 13.3967C529.801 13.3967 530.945 14.4998 530.986 16.2158H535.725C535.684 12.2936 532.62 9.6789 528.085 9.6789C523.427 9.6789 520.077 12.0485 520.077 16.0115C520.077 19.2391 521.834 20.955 525.47 21.7721L529.106 22.6301C530.904 23.0386 531.435 23.774 531.435 24.7954C531.435 26.2662 530.168 27.2059 527.84 27.2059C525.552 27.2059 524.244 26.1028 524.204 24.346H519.464Z" fill="white" fill-opacity="0.6"/>
<path d="M544.239 30.4743V14.459H548.161V10.2917H544.239V4H539.254V10.2917H535.373V14.459H539.254V30.4743H544.239Z" fill="white" fill-opacity="0.6"/>
<path d="M554.592 31.0054C557.738 31.0054 560.475 29.5755 561.333 27.4919L561.701 30.4743H566.072V18.2177C566.072 12.6205 562.722 9.6789 557.288 9.6789C551.814 9.6789 548.219 12.5388 548.219 16.9103H552.467C552.467 14.7858 554.102 13.5602 557.043 13.5602C559.576 13.5602 561.211 14.6633 561.211 17.4006V17.85L555.164 18.2994C550.384 18.6671 547.687 20.9958 547.687 24.7137C547.687 28.5132 550.302 31.0054 554.592 31.0054ZM556.226 27.2467C553.979 27.2467 552.753 26.3479 552.753 24.5094C552.753 22.8752 553.938 21.8538 557.043 21.5678L561.251 21.241V22.3032C561.251 25.4082 559.29 27.2467 556.226 27.2467Z" fill="white" fill-opacity="0.6"/>
<path d="M581.081 10.21C580.264 10.0057 579.569 9.92403 578.874 9.92403C576.178 9.92403 574.258 11.2723 573.4 13.2742L573.114 10.3326H568.415V30.4743H573.4V20.669C573.4 16.7469 575.647 14.8267 579.242 14.8267H581.081V10.21Z" fill="white" fill-opacity="0.6"/>
<path d="M580.348 24.346C580.348 28.309 583.535 31.0054 588.56 31.0054C593.545 31.0054 597.017 28.4724 597.017 24.3869C597.017 21.2818 595.302 19.7293 591.911 18.9531L588.274 18.0951C586.558 17.6866 585.66 16.9512 585.66 15.8072C585.66 14.2956 586.804 13.3967 588.765 13.3967C590.685 13.3967 591.829 14.4998 591.87 16.2158H596.609C596.568 12.2936 593.504 9.6789 588.969 9.6789C584.311 9.6789 580.961 12.0485 580.961 16.0115C580.961 19.2391 582.718 20.955 586.354 21.7721L589.99 22.6301C591.788 23.0386 592.319 23.774 592.319 24.7954C592.319 26.2662 591.053 27.2059 588.724 27.2059C586.436 27.2059 585.129 26.1028 585.088 24.346H580.348Z" fill="white" fill-opacity="0.6"/>
<path d="M611.946 10.2917V20.8733C611.946 24.7137 610.434 26.5522 607.288 26.5522C604.51 26.5522 602.998 24.9997 602.998 21.1593V10.2917H598.014V22.9161C598.014 27.8596 600.751 31.0054 605.409 31.0054C608.105 31.0054 610.72 29.6981 611.946 27.7779L612.313 30.4743H616.93V10.2917H611.946Z" fill="white" fill-opacity="0.6"/>
<path d="M619.525 36H624.509V27.7779C625.775 29.8206 628.39 31.0054 631.414 31.0054C637.419 31.0054 640.851 26.4296 640.851 20.1379C640.851 13.8053 637.092 9.6789 631.414 9.6789C628.349 9.6789 625.694 11.0271 624.468 13.3559L624.141 10.2917H619.525V36ZM624.55 20.383C624.55 16.7469 626.797 14.2139 630.229 14.2139C633.742 14.2139 635.826 16.7877 635.826 20.383C635.826 23.9783 633.742 26.5113 630.229 26.5113C626.797 26.5113 624.55 24.0192 624.55 20.383Z" fill="white" fill-opacity="0.6"/>
<g clip-path="url(#clip1_15_997)">
<path d="M752.405 30.4051C753.967 31.9672 753.967 34.4999 752.405 36.0619L751.265 37.2027C749.703 38.7648 747.17 38.7648 745.608 37.2027L741.599 33.1942L748.397 26.3966L752.405 30.4051Z" fill="white" fill-opacity="0.6"/>
<path d="M724.051 30.4085C722.502 31.9727 722.508 34.4951 724.064 36.0519L725.205 37.1926C726.772 38.7599 729.315 38.7539 730.875 37.1792L738.24 29.7445L731.442 22.9469L724.051 30.4085Z" fill="white" fill-opacity="0.6"/>
<path fill-rule="evenodd" clip-rule="evenodd" d="M758.672 1.5351C757.111 -0.0260675 754.58 -0.0271353 753.017 1.53272L738.3 16.2251L730.384 8.30913C729.133 7.0577 727.104 7.0577 725.852 8.30913L723.586 10.5749C722.335 11.8264 722.335 13.8552 723.586 15.1067L738.294 29.8146L741.026 27.0827C741.066 27.0464 741.104 27.0091 741.143 26.9709L759.81 8.33505C761.374 6.77334 761.375 4.23884 759.812 2.67581L758.672 1.5351Z" fill="white" fill-opacity="0.6"/>
</g>
<path d="M786.351 29.9231H773.082V21.2308H784.928V17.5385H773.082V9.69231H786.082V6H768.851V33.6154H786.351V29.9231Z" fill="white" fill-opacity="0.6"/>
<path d="M790.716 33.6154L796.101 25.5L801.562 33.6154H806.024L798.87 23.3077L805.562 13.2308H801.37L796.331 20.9231L791.293 13.2308H786.793L793.562 23.1923L786.331 33.6154H790.716Z" fill="white" fill-opacity="0.6"/>
<path d="M817.511 33.6154C826.05 33.6154 831.742 27.6923 831.742 19.6538C831.742 11.6154 826.242 6 817.511 6H806.742V33.6154H817.511ZM814.011 12.2692H817.088C821.819 12.2692 824.281 14.7692 824.281 19.6538C824.281 24.8462 821.896 27.3462 817.088 27.3462H814.011V12.2692Z" fill="white" fill-opacity="0.6"/>
<path d="M842.071 34C848.186 34 852.878 29.1923 852.878 23.2692C852.878 17.3462 848.186 12.5385 842.071 12.5385C835.955 12.5385 831.263 17.3462 831.263 23.2692C831.263 29.1923 835.955 34 842.071 34ZM842.071 28.1154C840.032 28.1154 838.109 26.5 838.109 23.2692C838.109 20.0385 840.032 18.4615 842.071 18.4615C844.109 18.4615 846.032 20.0385 846.032 23.2692C846.032 26.5 844.109 28.1154 842.071 28.1154Z" fill="white" fill-opacity="0.6"/>
<path d="M860.069 22.7308C860.069 19.6154 861.53 18.4615 863.146 18.4615C865.146 18.4615 866.069 19.8846 866.069 22.5V33.6154H872.646V20.3077C872.646 15.2692 869.761 12.5385 865.684 12.5385C863.069 12.5385 861.146 13.6154 859.53 15.4231V12.9231H853.492V33.6154H860.069V22.7308Z" fill="white" fill-opacity="0.6"/>
<path d="M883.721 33.9615C888.875 33.9615 892.529 31.3077 893.798 26.5769H887.221C886.644 28.0769 885.414 28.8462 883.567 28.8462C881.452 28.8462 880.221 27.5385 879.875 24.9231H893.914C895.106 18.1154 890.529 12.5385 883.683 12.5385C877.529 12.5385 873.067 17.0385 873.067 23.2308C873.067 29.6538 877.337 33.9615 883.721 33.9615ZM883.529 17.3846C885.491 17.3846 886.798 18.7308 886.875 20.8077H879.952C880.414 18.5 881.567 17.3846 883.529 17.3846Z" fill="white" fill-opacity="0.6"/>
<path d="M1001.81 6H979.362L979.337 6.13459C979.277 6.132 979.218 6.13065 979.158 6.13065C977.005 6.13065 975.26 7.8758 975.26 10.0285C975.26 11.5248 976.103 12.824 977.34 13.4774L1000.48 19.3039H1010.72L1001.81 6Z" fill="white" fill-opacity="0.6"/>
<path d="M1002.37 21.9306L989.906 20.6961H988.067H977.487L986.397 34H1008.84L1008.87 33.8654C1008.93 33.868 1008.99 33.8694 1009.05 33.8694C1011.2 33.8694 1012.94 32.1242 1012.94 29.9715C1012.94 28.2103 1011.78 26.7219 1010.17 26.2388L1002.37 21.9306Z" fill="white" fill-opacity="0.6"/>
<path d="M1022.1 27.9709C1022.1 31.5588 1024.99 34 1029.54 34C1034.05 34 1037.19 31.7067 1037.19 28.0079C1037.19 25.1968 1035.64 23.7913 1032.57 23.0885L1029.28 22.3118C1027.72 21.9419 1026.91 21.2761 1026.91 20.2404C1026.91 18.8719 1027.95 18.0581 1029.72 18.0581C1031.46 18.0581 1032.5 19.0568 1032.53 20.6103H1036.82C1036.79 17.0594 1034.01 14.6922 1029.91 14.6922C1025.69 14.6922 1022.66 16.8375 1022.66 20.4254C1022.66 23.3474 1024.25 24.9009 1027.54 25.6407L1030.83 26.4174C1032.46 26.7873 1032.94 27.4531 1032.94 28.3778C1032.94 29.7094 1031.79 30.5601 1029.69 30.5601C1027.61 30.5601 1026.43 29.5614 1026.39 27.9709H1022.1Z" fill="white" fill-opacity="0.6"/>
<path d="M1046.49 34C1051.26 34 1054.59 31.5958 1055.37 27.6011H1051.19C1050.67 29.3395 1049.04 30.3012 1046.57 30.3012C1043.57 30.3012 1041.87 28.6737 1041.54 25.4557L1055.3 25.4188V24.0502C1055.3 18.354 1051.82 14.6922 1046.34 14.6922C1040.98 14.6922 1037.25 18.6499 1037.25 24.3831C1037.25 30.0423 1041.05 34 1046.49 34ZM1046.38 18.391C1049.08 18.391 1050.82 20.0555 1050.82 22.5707H1041.65C1042.09 19.8336 1043.72 18.391 1046.38 18.391Z" fill="white" fill-opacity="0.6"/>
<path d="M1061.14 33.5192V6H1056.67V33.5192H1061.14Z" fill="white" fill-opacity="0.6"/>
<path d="M1061.75 15.247V19.0198H1064.38V33.5192H1068.86V19.0198H1073.22V15.247H1068.86V13.0277C1068.86 11.2153 1069.41 10.0317 1071.7 10.0317H1073.29V6.18494C1072.52 6.03699 1071.67 6 1070.96 6C1067.01 6 1064.38 8.07133 1064.38 13.0277V15.247H1061.75Z" fill="white" fill-opacity="0.6"/>
<path d="M1078.76 34C1081.6 34 1084.08 32.7054 1084.86 30.819L1085.19 33.5192H1089.15V22.4227C1089.15 17.3554 1086.12 14.6922 1081.2 14.6922C1076.24 14.6922 1072.99 17.2814 1072.99 21.2391H1076.83C1076.83 19.3157 1078.31 18.2061 1080.98 18.2061C1083.27 18.2061 1084.75 19.2048 1084.75 21.683V22.0898L1079.27 22.4967C1074.95 22.8296 1072.51 24.9379 1072.51 28.3038C1072.51 31.7437 1074.87 34 1078.76 34ZM1080.24 30.5971C1078.2 30.5971 1077.09 29.7834 1077.09 28.1189C1077.09 26.6394 1078.16 25.7147 1080.98 25.4557L1084.79 25.1598V26.1215C1084.79 28.9326 1083.01 30.5971 1080.24 30.5971Z" fill="white" fill-opacity="0.6"/>
<path d="M1089.87 27.9709C1089.87 31.5588 1092.75 34 1097.3 34C1101.81 34 1104.96 31.7067 1104.96 28.0079C1104.96 25.1968 1103.4 23.7913 1100.33 23.0885L1097.04 22.3118C1095.49 21.9419 1094.67 21.2761 1094.67 20.2404C1094.67 18.8719 1095.71 18.0581 1097.49 18.0581C1099.22 18.0581 1100.26 19.0568 1100.3 20.6103H1104.59C1104.55 17.0594 1101.78 14.6922 1097.67 14.6922C1093.45 14.6922 1090.42 16.8375 1090.42 20.4254C1090.42 23.3474 1092.01 24.9009 1095.3 25.6407L1098.6 26.4174C1100.22 26.7873 1100.7 27.4531 1100.7 28.3778C1100.7 29.7094 1099.56 30.5601 1097.45 30.5601C1095.38 30.5601 1094.19 29.5614 1094.16 27.9709H1089.87Z" fill="white" fill-opacity="0.6"/>
<path d="M1112.3 33.5192V19.0198H1115.85V15.247H1112.3V9.55086H1107.78V15.247H1104.27V19.0198H1107.78V33.5192H1112.3Z" fill="white" fill-opacity="0.6"/>
<defs>
<clipPath id="clip0_15_997">
<rect width="40" height="40" fill="white" transform="translate(471.464)"/>
</clipPath>
<clipPath id="clip1_15_997">
<rect width="40" height="40" fill="white" transform="translate(720.851)"/>
</clipPath>
</defs>
</svg>
